<?xml version="1.0" encoding="utf-8"?>
<!-- Generator: Adobe Illustrator 25.3.1, SVG Export Plug-In . SVG Version: 6.00 Build 0)  -->
<svg version="1.1" id="Capa_1" xmlns="http://www.w3.org/2000/svg" xmlns:xlink="http://www.w3.org/1999/xlink" x="0px" y="0px"
	 viewBox="0 0 512 512" style="enable-background:new 0 0 512 512;" xml:space="preserve">
<style type="text/css">
	.st0{fill:#A5EBCE;}
	.st1{fill:#BA623E;}
	.st2{fill:#5A2A15;}
	.st3{fill:#783823;}
	.st4{fill:#FFEF87;}
	.st5{fill:#FFE473;}
</style>
<path class="st0" d="M512,256c0,141.4-114.6,256-256,256S0,397.4,0,256S114.6,0,256,0S512,114.6,512,256z"/>
<path class="st1" d="M456,330H56V90c0-11,9-20,20-20h360c11,0,20,9,20,20V330z"/>
<path class="st2" d="M412,370H100c-5.5,0-10-4.5-10-10V120c0-5.5,4.5-10,10-10h312c5.5,0,10,4.5,10,10v240
	C422,365.5,417.5,370,412,370z"/>
<path class="st3" d="M456,415.8C409.1,474.4,336.9,512,256,512s-153.1-37.6-200-96.2V320h400V415.8z"/>
<path class="st2" d="M355.4,492c-30.6,12.9-64.1,20-99.4,20s-68.8-7.1-99.4-20H355.4z M437,431H90c-5.5,0-10-4.5-10-10v-21
	c0-5.5,4.5-10,10-10h340c5.5,0,10-4.5,10-10l0,0c0-5.5-4.5-10-10-10H90c-5.5,0-10-4.5-10-10v-40H56v95.8
	c10.2,12.8,21.7,24.6,34.2,35.2h331.7c6.3-5.4,12.4-11.1,18.2-17l0,0C440,432.3,438.7,431,437,431z"/>
<path class="st4" d="M211,55v20c0,2.8-2.2,5-5,5h-60c-2.8,0-5-2.2-5-5V55c0-2.8,2.2-5,5-5h60C208.8,50,211,52.2,211,55z M366,50h-60
	c-2.8,0-5,2.2-5,5v20c0,2.8,2.2,5,5,5h60c2.8,0,5-2.2,5-5V55C371,52.2,368.8,50,366,50z"/>
<path class="st5" d="M161,55v20c0,2.8,2.2,5,5,5h-20c-2.8,0-5-2.2-5-5V55c0-2.8,2.2-5,5-5h20C163.3,50,161,52.2,161,55z M321,75V55
	c0-2.8,2.2-5,5-5h-20c-2.8,0-5,2.2-5,5v20c0,2.8,2.2,5,5,5h20C323.3,80,321,77.8,321,75z"/>
</svg>
