<svg viewBox="-91 0 512 512" xmlns="http://www.w3.org/2000/svg"><path d="m164.664062 466.976562h38.800782c42.3125 0 76.613281-34.300781 76.613281-76.613281v-38.796875h-38.800781c-42.3125 0-76.613282 34.296875-76.613282 76.609375l-20.015624 18.15625zm0 0" fill="#70da40"/><path d="m164.664062 466.976562h-38.796874c-42.3125 0-76.613282-34.300781-76.613282-76.613281v-38.796875h38.800782c42.308593 0 76.609374 34.296875 76.609374 76.609375zm0 0" fill="#c5f0b2"/><path d="m149.664062 273.15625h30v238.84375h-30zm0 0" fill="#009959"/><path d="m329.332031 164.667969c0-25.453125-20.707031-46.160157-46.160156-46.160157h-7.0625l4.992187-4.996093c18-17.996094 18-47.28125 0-65.28125-8.71875-8.71875-20.3125-13.519531-32.640624-13.519531-12.328126 0-23.921876 4.800781-32.640626 13.519531l-4.996093 4.992187v-7.0625c.003906-25.453125-20.707031-46.160156-46.160157-46.160156l-20.015624 171.277344 20.015624 158.054687c25.453126 0 46.164063-20.707031 46.164063-46.160156v-7.0625l4.992187 4.992187c8.71875 8.71875 20.3125 13.523438 32.640626 13.523438 12.332031 0 23.925781-4.804688 32.644531-13.523438 17.996093-17.996093 17.996093-47.28125 0-65.28125l-4.996094-4.992187h7.0625c25.453125 0 46.160156-20.707031 46.160156-46.160156zm0 0" fill="#ff9f22"/><path d="m118.503906 46.160156v7.0625l-4.992187-4.992187c-8.71875-8.71875-20.3125-13.519531-32.640625-13.519531-12.332032 0-23.921875 4.800781-32.640625 13.519531s-13.519531 20.308593-13.519531 32.640625c0 12.332031 4.800781 23.921875 13.519531 32.640625l4.992187 4.996093h-7.0625c-25.453125 0-46.160156 20.707032-46.160156 46.160157s20.707031 46.160156 46.160156 46.160156h7.0625l-4.992187 4.996094c-8.71875 8.71875-13.519531 20.308593-13.519531 32.640625 0 12.328125 4.800781 23.921875 13.519531 32.640625s20.308593 13.519531 32.640625 13.519531c12.328125 0 23.921875-4.800781 32.640625-13.519531l4.992187-4.996094v7.0625c0 25.453125 20.710938 46.164063 46.160156 46.164063v-329.335938c-25.449218 0-46.160156 20.707031-46.160156 46.160156zm0 0" fill="#ffda44"/><path d="m164.664062 70.410156-20.015624 94.257813 20.015624 94.253906c52.058594 0 94.257813-42.199219 94.257813-94.253906 0-52.058594-42.199219-94.257813-94.257813-94.257813zm0 0" fill="#724435"/><path d="m70.410156 164.667969c0 52.054687 42.199219 94.253906 94.253906 94.253906v-188.511719c-52.054687 0-94.253906 42.199219-94.253906 94.257813zm0 0" fill="#a05f4b"/></svg>